REM DIRINDEX 1\2,1\4,1\3\5,1\3\6,1\3\7
REM DIRNAME folder01,folder02,folder03,folder04,folder05,folder06,folder07
TITLE ""
FILE "CD3Track09.mp3" MP3
  TRACK 01 AUDIO
    TITLE "0:"
    INDEX 01 00:00:00
  TRACK 02 AUDIO
    TITLE "5:cjc081_2444"
    INDEX 01 00:00:25
  TRACK 03 AUDIO
    TITLE "0:"
    INDEX 01 00:01:48
  TRACK 04 AUDIO
    TITLE "6:cjc081_2445"
    INDEX 01 00:02:18
  TRACK 05 AUDIO
    TITLE "0:"
    INDEX 01 00:03:39
  TRACK 06 AUDIO
    TITLE "5:cjc081_2446"
    INDEX 01 00:04:07
  TRACK 07 AUDIO
    TITLE "0:"
    INDEX 01 00:05:36
  TRACK 08 AUDIO
    TITLE "6:cjc081_2447"
    INDEX 01 00:06:06
  TRACK 09 AUDIO
    TITLE "0:"
    INDEX 01 00:08:03
  TRACK 10 AUDIO
    TITLE "5:cjc081_2448"
    INDEX 01 00:08:48
  TRACK 11 AUDIO
    TITLE "0:"
    INDEX 01 00:10:00
  TRACK 12 AUDIO
    TITLE "6:cjc081_2449"
    INDEX 01 00:10:51
  TRACK 13 AUDIO
    TITLE "0:"
    INDEX 01 00:12:22
  TRACK 14 AUDIO
    TITLE "5:cjc081_2450"
    INDEX 01 00:12:67
  TRACK 15 AUDIO
    TITLE "0:"
    INDEX 01 00:14:13
  TRACK 16 AUDIO
    TITLE "6:cjc081_2451"
    INDEX 01 00:14:58
  TRACK 17 AUDIO
    TITLE "0:"
    INDEX 01 00:16:08
  TRACK 18 AUDIO
    TITLE "5:cjc081_2452"
    INDEX 01 00:16:51
  TRACK 19 AUDIO
    TITLE "0:"
    INDEX 01 00:18:03
  TRACK 20 AUDIO
    TITLE "6:cjc081_2453"
    INDEX 01 00:18:44
  TRACK 21 AUDIO
    TITLE "0:"
    INDEX 01 00:19:52
  TRACK 22 AUDIO
    TITLE "5:cjc081_2454"
    INDEX 01 00:20:28
  TRACK 23 AUDIO
    TITLE "0:"
    INDEX 01 00:21:72
  TRACK 24 AUDIO
    TITLE "6:cjc081_2455"
    INDEX 01 00:22:42
  TRACK 25 AUDIO
    TITLE "0:"
    INDEX 01 00:24:47
  TRACK 26 AUDIO
    TITLE "5:cjc081_2456"
    INDEX 01 00:25:15
  TRACK 27 AUDIO
    TITLE "0:"
    INDEX 01 00:26:62
  TRACK 28 AUDIO
    TITLE "6:cjc081_2457"
    INDEX 01 00:27:38
  TRACK 29 AUDIO
    TITLE "0:"
    INDEX 01 00:28:49
  TRACK 30 AUDIO
    TITLE "5:cjc081_2458"
    INDEX 01 00:29:21
  TRACK 31 AUDIO
    TITLE "0:"
    INDEX 01 00:30:46
  TRACK 32 AUDIO
    TITLE "6:cjc081_2459"
    INDEX 01 00:31:22
  TRACK 33 AUDIO
    TITLE "0:"
    INDEX 01 00:36:03
  TRACK 34 AUDIO
    TITLE "5:cjc081_2460"
    INDEX 01 00:36:46
  TRACK 35 AUDIO
    TITLE "0:"
    INDEX 01 00:37:71
  TRACK 36 AUDIO
    TITLE "6:cjc081_2461"
    INDEX 01 00:38:45
  TRACK 37 AUDIO
    TITLE "0:"
    INDEX 01 00:39:70
  TRACK 38 AUDIO
    TITLE "5:cjc081_2462"
    INDEX 01 00:40:40
  TRACK 39 AUDIO
    TITLE "0:"
    INDEX 01 00:41:53
  TRACK 40 AUDIO
    TITLE "6:cjc081_2463"
    INDEX 01 00:42:25
  TRACK 41 AUDIO
    TITLE "0:"
    INDEX 01 00:44:54
  TRACK 42 AUDIO
    TITLE "5:cjc081_2464"
    INDEX 01 00:45:26
  TRACK 43 AUDIO
    TITLE "0:"
    INDEX 01 00:46:41
  TRACK 44 AUDIO
    TITLE "6:cjc081_2465"
    INDEX 01 00:47:13
  TRACK 45 AUDIO
    TITLE "0:"
    INDEX 01 00:48:30
  TRACK 46 AUDIO
    TITLE "5:cjc081_2466"
    INDEX 01 00:49:02
  TRACK 47 AUDIO
    TITLE "0:"
    INDEX 01 00:50:07
  TRACK 48 AUDIO
    TITLE "6:cjc081_2467"
    INDEX 01 00:50:54
  TRACK 49 AUDIO
    TITLE "0:"
    INDEX 01 00:51:67
  TRACK 50 AUDIO
    TITLE "5:cjc081_2468"
    INDEX 01 00:52:41
  TRACK 51 AUDIO
    TITLE "0:"
    INDEX 01 00:53:60
  TRACK 52 AUDIO
    TITLE "6:cjc081_2469"
    INDEX 01 00:54:34
  TRACK 53 AUDIO
    TITLE "0:"
    INDEX 01 00:56:29
  TRACK 54 AUDIO
    TITLE "5:cjc081_2470"
    INDEX 01 00:56:72
  TRACK 55 AUDIO
    TITLE "0:"
    INDEX 01 00:58:26
  TRACK 56 AUDIO
    TITLE "6:cjc081_2471"
    INDEX 01 00:58:73
  TRACK 57 AUDIO
    TITLE "0:"
    INDEX 01 01:03:61
  TRACK 58 AUDIO
    TITLE "7:cjc081_2472"
    INDEX 01 01:05:24
  TRACK 59 AUDIO
    TITLE "0:"
    INDEX 01 01:16:05
